<svg width="24" height="24" viewBox="0 0 24 24" fill="none" xmlns="http://www.w3.org/2000/svg">
<path id="Vector" d="M21.8182 0H2.18182C0.976364 0 0 0.976364 0 2.18182V21.8182C0 23.0236 0.976364 24 2.18182 24H21.8182C23.0236 24 24 23.0236 24 21.8182V2.18182C24 0.976364 23.0225 0 21.8182 0ZM20.388 10.3353C20.2462 10.3484 20.1033 10.3571 19.9593 10.3571C18.3284 10.3571 16.8949 9.51927 16.0604 8.25055C16.0604 11.5767 16.0604 15.3622 16.0604 15.4255C16.0604 18.3545 13.6855 20.7284 10.7575 20.7284C7.82945 20.7273 5.45455 18.3524 5.45455 15.4244C5.45455 12.4953 7.82945 10.1215 10.7575 10.1215C10.8687 10.1215 10.9767 10.1313 11.0847 10.1378V12.7516C10.9756 12.7385 10.8698 12.7189 10.7575 12.7189C9.26291 12.7189 8.05091 13.9309 8.05091 15.4255C8.05091 16.92 9.26182 18.132 10.7575 18.132C12.2531 18.132 13.5731 16.9538 13.5731 15.4593C13.5731 15.3993 13.5993 3.27382 13.5993 3.27382H16.0964C16.3309 5.50691 18.1342 7.26982 20.388 7.43127V10.3353Z" fill="#051224"/>
</svg>
