<svg width="24" height="24" viewBox="0 0 24 24" fill="none" xmlns="http://www.w3.org/2000/svg">
<path id="Vector" d="M7.55469 0H16.4427C20.6094 0 24 3.38935 24 7.55469V16.4427C24 20.6094 20.6106 24 16.4453 24H7.55729C3.39062 24 0 20.6106 0 16.4453V7.55729C0 3.39062 3.38935 0 7.55469 0ZM7.55469 2.66667C4.86002 2.66667 2.66667 4.86129 2.66667 7.55729V16.4453C2.66667 19.14 4.86129 21.3333 7.55729 21.3333H16.4453C19.14 21.3333 21.3333 19.1387 21.3333 16.4427V7.55469C21.3333 4.86002 19.1387 2.66667 16.4427 2.66667H7.55469ZM18.224 4.88802C18.7146 4.88802 19.112 5.28538 19.112 5.77604C19.112 6.26671 18.7146 6.66667 18.224 6.66667C17.7333 6.66667 17.3333 6.26671 17.3333 5.77604C17.3333 5.28538 17.7333 4.88802 18.224 4.88802ZM12 5.33333C15.676 5.33333 18.6667 8.324 18.6667 12C18.6667 15.676 15.676 18.6667 12 18.6667C8.324 18.6667 5.33333 15.676 5.33333 12C5.33333 8.324 8.324 5.33333 12 5.33333ZM12 8C10.9391 8 9.92172 8.42143 9.17157 9.17157C8.42143 9.92172 8 10.9391 8 12C8 13.0609 8.42143 14.0783 9.17157 14.8284C9.92172 15.5786 10.9391 16 12 16C13.0609 16 14.0783 15.5786 14.8284 14.8284C15.5786 14.0783 16 13.0609 16 12C16 10.9391 15.5786 9.92172 14.8284 9.17157C14.0783 8.42143 13.0609 8 12 8Z" fill="#051224"/>
</svg>
