<svg width="24" height="20" viewBox="0 0 24 20" fill="none" xmlns="http://www.w3.org/2000/svg">
<path id="Vector" d="M12 0.181641C8.136 0.181641 3.12079 1.1177 3.12079 1.1177L3.10817 1.13165C1.3483 1.40377 0 2.86589 0 4.64405V9.99895V10.0007V15.3538V15.3556C0.00171734 16.2048 0.316495 17.0256 0.887814 17.6707C1.45913 18.3157 2.24957 18.7427 3.11719 18.875L3.12079 18.8802C3.12079 18.8802 8.136 19.818 12 19.818C15.864 19.818 20.8792 18.8802 20.8792 18.8802L20.881 18.8785C21.7496 18.7465 22.5409 18.3191 23.1127 17.6733C23.6844 17.0275 23.9991 16.2057 24 15.3556V15.3538V10.0007V9.99895V4.64405C23.9987 3.79453 23.6841 2.97328 23.1128 2.32789C22.5414 1.6825 21.7507 1.25525 20.8828 1.12293L20.8792 1.1177C20.8792 1.1177 15.864 0.181641 12 0.181641ZM9.23077 5.89214L16.6154 9.99895L9.23077 14.1058V5.89214Z" fill="#051224"/>
</svg>
